<svg xmlns="http://www.w3.org/2000/svg" viewBox="0 0 64 64"><path fill="#FBB03B" d="M32.673 18.305C30.471 13.799 25.998 11 21 11c-7.168 0-13 5.832-13 13 0 4.382 2.191 8.441 5.861 10.859a1 1 0 00.55.165l.041-.001.211-.012c.071-.005.144-.011.217-.011H24a1 1 0 001-1v-4.12c0-4.528 2.862-8.627 7.121-10.198a.999.999 0 00.552-1.377zM21 9a1 1 0 01-1-1V6a1 1 0 012 0v2a1 1 0 01-1 1zM32.313 13.687a.999.999 0 01-.707-1.707l1.415-1.415a.999.999 0 111.414 1.414l-1.415 1.415a.997.997 0 01-.707.293zM5 25H3a1 1 0 010-2h2a1 1 0 010 2zM9.687 13.687a.997.997 0 01-.707-.293l-1.415-1.415a.999.999 0 111.414-1.414l1.415 1.415a.999.999 0 01-.707 1.707z"/><path fill="#E6E6E6" d="M49.12 32H49v-2.12C49 22.778 43.222 17 36.12 17h-.24C28.778 17 23 22.778 23 29.88V33h-8.12C7.778 33 2 38.778 2 45.88v.24C2 53.222 7.778 59 14.88 59h34.24C56.222 59 62 53.222 62 46.12v-1.24C62 37.778 56.222 32 49.12 32z"/><path fill="#CFCFCF" d="M59.997 38.011C59.96 46.503 53.044 53.4 44.544 53.4H4.265C6.589 56.778 10.479 59 14.88 59h34.24C56.222 59 62 53.222 62 46.12v-1.24c0-2.526-.742-4.878-2.003-6.869z"/></svg>