<svg id="SvgjsSvg1001" width="288" height="288" xmlns="http://www.w3.org/2000/svg" version="1.1" xmlns:xlink="http://www.w3.org/1999/xlink" xmlns:svgjs="http://svgjs.com/svgjs"><defs id="SvgjsDefs1002"></defs><g id="SvgjsG1008" transform="matrix(1,0,0,1,0,0)"><svg xmlns="http://www.w3.org/2000/svg" width="288" height="288" enable-background="new 0 0 24 24" version="1.0" viewBox="0 0 24 24"><path fill="#fffdfd" d="M16.404,19.829h-1.219c-0.193,0-0.35-0.157-0.35-0.35s0.157-0.35,0.35-0.35h5.777    c1.288-0.075,2.312-1.164,2.312-2.478c0-1.366-1.113-2.478-2.482-2.478c-0.133,0-0.266,0.021-0.415,0.042    c-0.11,0.015-0.255-0.015-0.333-0.093s-0.151-0.182-0.136-0.291l0.014-0.1c0.02-0.14,0.039-0.265,0.039-0.39    c0-2.13-1.723-3.863-3.841-3.863c-1.757,0-3.282,1.193-3.71,2.902c-0.047,0.188-0.24,0.302-0.424,0.254    c-0.188-0.047-0.301-0.237-0.254-0.424c0.506-2.021,2.311-3.432,4.389-3.432c2.504,0,4.542,2.047,4.542,4.563    c0,0.045-0.002,0.09-0.005,0.135c0.046-0.003,0.091-0.005,0.135-0.005c1.754,0,3.182,1.426,3.182,3.178    c0,1.685-1.314,3.08-2.992,3.177L16.404,19.829z" class="color010101 svgShape"></path><path fill="#fffdfd" d="M8.503 10.837c-.149 0-.287-.096-.334-.246C7.879 9.662 7.97 8.672 8.427 7.806c.456-.864 1.221-1.497 2.153-1.782 1.909-.595 3.944.487 4.542 2.408.097.287.127.547.156.799.022.192-.116.366-.308.388-.195.022-.365-.116-.388-.308-.026-.226-.051-.438-.126-.664-.486-1.561-2.133-2.434-3.67-1.955-.755.231-1.373.742-1.741 1.44-.369.7-.443 1.499-.209 2.25.058.185-.045.381-.229.438C8.573 10.832 8.538 10.837 8.503 10.837zM11.646 4.843c-.193 0-.35-.157-.35-.35V3.192c0-.193.157-.35.35-.35s.35.157.35.35v1.301C11.996 4.686 11.839 4.843 11.646 4.843zM6.492 9.989H5.189c-.193 0-.35-.157-.35-.35s.157-.35.35-.35h1.303c.193 0 .35.157.35.35S6.685 9.989 6.492 9.989zM7.994 6.341c-.089 0-.179-.034-.247-.103L6.84 5.334c-.137-.136-.137-.358 0-.495s.359-.137.495 0l.906.905c.137.136.137.358 0 .495C8.173 6.307 8.083 6.341 7.994 6.341zM15.298 6.341c-.09 0-.179-.034-.248-.103-.137-.137-.137-.358 0-.495l.906-.905c.137-.137.359-.137.495 0 .137.137.137.358 0 .495l-.906.905C15.478 6.307 15.388 6.341 15.298 6.341z" class="color010101 svgShape"></path><path fill="#fffdfd" d="M12.949,21.158H3.123c-0.057,0-0.111-0.014-0.161-0.039c-1.655-0.179-2.937-1.587-2.937-3.252    c0-1.814,1.491-3.291,3.324-3.291c0.07,0,0.142,0,0.217,0.003c0.049-2.474,2.067-4.471,4.541-4.471    c2.503,0,4.541,2.047,4.541,4.563c0,0.046-0.001,0.091-0.004,0.135c0.046-0.003,0.091-0.005,0.135-0.005    c1.754,0,3.182,1.426,3.182,3.178c0,1.685-1.314,3.08-2.992,3.177C12.962,21.158,12.956,21.158,12.949,21.158z M3.232,20.458    h9.707c1.303-0.08,2.322-1.167,2.322-2.478c0-1.366-1.113-2.478-2.482-2.478c-0.132,0-0.265,0.021-0.414,0.042    c-0.108,0.018-0.259-0.017-0.337-0.097c-0.078-0.08-0.15-0.188-0.132-0.297c0.025-0.151,0.052-0.302,0.052-0.479    c0-2.13-1.723-3.863-3.84-3.863c-2.118,0-3.841,1.733-3.841,3.863c0,0.039,0.006,0.072,0.011,0.105    c0.009,0.065,0.018,0.131,0.018,0.206c0,0.11-0.052,0.213-0.139,0.279c-0.088,0.066-0.2,0.088-0.307,0.057    c-0.151-0.043-0.32-0.043-0.499-0.043c-1.447,0-2.624,1.162-2.624,2.59c0,1.336,1.052,2.462,2.395,2.563    C3.159,20.434,3.197,20.443,3.232,20.458z" class="color010101 svgShape"></path></svg></g></svg>